<?xml version="1.0" encoding="utf-8"?>
<!-- Generator: Adobe Illustrator 22.1.0, SVG Export Plug-In . SVG Version: 6.00 Build 0)  -->
<svg version="1.1" id="Layer_1" xmlns="http://www.w3.org/2000/svg" xmlns:xlink="http://www.w3.org/1999/xlink" x="0px" y="0px"
	 viewBox="0 0 360 360" style="enable-background:new 0 0 360 360;" xml:space="preserve">
<style type="text/css">
	.st0{fill:#00405C;}
	.st1{fill:#FFFFFF;}
</style>
<g>
	<rect class="st0" width="360" height="360"/>
	<g>
		<g>
			<g>
				<g>
					<g>
						<g>
							<g>
								<path class="st1" d="M203.2,185.7c-10.7,10.7-15.9,15.8-18.6,28.8c-0.2,1-1.3,1-1.3,0v-15.9c0-10.2,9.1-19.5,19.9-30.4
									l8.7-8.7c12.2-12.2,14.4-25.8,5.4-34.8c-0.8-0.8-0.4-1.6,0.7-1.1c12.1,5.5,21.6,25.6,0.9,46.3L203.2,185.7z"/>
								<path class="st1" d="M203.2,196.2l12-12c8-8,23.9-24.1,17.7-40.5c-0.4-1.1,0.3-1.6,1-0.7c10.6,12.9,7,33-13.8,53.7l-17,16.9
									c-10.7,10.7-15.9,15.9-18.6,28.9c-0.2,1-1.3,1-1.3,0v-16C183.3,216.4,192.4,207.1,203.2,196.2z"/>
								<path class="st1" d="M178.8,133.5c10.7-10.7,15.9-15.8,18.6-28.8c0.2-1,1.3-1,1.3,0v15.9c0,10.2-9.1,19.5-19.9,30.4
									l-32.9,32.9c-12.2,12.2-15.2,27.4-7,36.3c0.7,0.8,0.4,1.6-0.7,1.1c-12.1-5.5-20.1-27.1,0.7-47.9L178.8,133.5z"/>
								<path class="st1" d="M178.8,123l-35.1,35.1c-8,8-26.2,25.9-20.4,43.2c0.4,1.1-0.3,1.6-1,0.7c-10.9-14.5-6.3-33.6,15.8-55.7
									l40.7-40.7c10.7-10.7,15.9-15.9,18.6-28.9c0.2-1,1.3-1,1.3,0v16C198.7,102.8,189.6,112.2,178.8,123z"/>
								<path class="st1" d="M178.8,77.6c10.7-10.7,15.9-15.8,18.6-28.8c0.2-1,1.3-1,1.3,0v15.9c0,10.2-9.1,19.5-19.9,30.4
									L138,135.7c-17.1,17.1-21.1,27-21.8,38.1c-0.1,1.1-0.9,1-1.2,0c-3.8-12.3-1.3-31.2,16.5-49L178.8,77.6z"/>
								<path class="st1" d="M156.5,253.9c-0.4,0-0.7-0.3-0.7-0.7V244c0-0.4,0.3-0.7,0.7-0.7h15.6c0.4,0,0.7-0.3,0.7-0.7
									c0-8.3-6.3-13.9-31.4-9.6l-54.1,9.3c0,0-41.2,41.2-41.6,41.6c-0.6,0.7-0.1,1.5,0.7,1.5c0.8-0.1,90.1-15.5,90.1-15.5
									c20.5-3.5,31.7,6.3,35,15.4c0.3,0.8,1.3,0.7,1.3-0.1c0-0.6,0-30.8,0-30.8c0-0.4-0.3-0.7-0.7-0.7h-15.6V253.9z"/>
								<path class="st1" d="M87.3,242.5c0,0-41.2,41.2-41.6,41.6c-0.6,0.7-0.1,1.5,0.7,1.5c0.8-0.1,90.1-15.5,90.1-15.5"/>
								<path class="st1" d="M268.8,242.5c0,0,41.2,41.2,41.6,41.6c0.6,0.7,0.1,1.5-0.7,1.5c-0.8-0.1-90.1-15.5-90.1-15.5
									c-20.5-3.5-31.7,6.3-35,15.4c-0.3,0.8-1.3,0.7-1.3-0.1v-2.8c0-10.2,9.1-19.5,19.9-30.4l17.9-17.9L268.8,242.5z"/>
								<g>
									<path class="st1" d="M241.2,171.2c-0.3-1-1.2-1.1-1.2,0c-0.3,10.6-2.9,19.2-21.8,38.1l-14.9,14.9
										c-6.8,6.8-12.9,13-16.5,19.2h14.7c0.6-0.6,1.1-1.1,1.7-1.7l21.4-21.4C242.5,202.4,245,183.5,241.2,171.2z"/>
								</g>
								<path class="st1" d="M183.3,254.6c0-0.4,0.3-0.7,0.7-0.7h7.9c-3.5,4.6-5.7,9.4-7.2,16.6c-0.2,1-1.3,1-1.3,0L183.3,254.6
									L183.3,254.6z"/>
							</g>
						</g>
					</g>
				</g>
			</g>
			<g>
				<path class="st1" d="M308.3,257.3c0-1.9-1.1-2.8-3.4-2.8h-2.7v9.2h1.6v-3.6h1.3l2.1,3.6h1.9l-2.5-4.1
					C307.5,259.3,308.3,258.6,308.3,257.3z M304.9,258.8h-1.1v-2.9h1.1c1.2,0,1.8,0.5,1.8,1.4C306.7,258.3,306,258.8,304.9,258.8z"
					/>
				<path class="st1" d="M305.2,251.4c-4.5,0-7.7,3.3-7.7,7.8c0,4.4,3.2,7.7,7.7,7.7c4.4,0,7.7-3.3,7.7-7.7
					C312.9,254.6,309.5,251.4,305.2,251.4z M305.2,265.7c-3.8,0-6.5-2.9-6.5-6.5c0-3.8,2.7-6.7,6.5-6.7c3.9,0,6.5,3,6.5,6.7
					C311.7,263,308.8,265.7,305.2,265.7z"/>
			</g>
		</g>
	</g>
</g>
</svg>
